<svg
            xmlns="http://www.w3.org/2000/svg"
            viewBox="0 0 1000 1000"
            
        >
            <switch>
                <g>
                    <circle fill="#382B73" cx="500" cy="500" r="398" />
                    <circle fill="#473080" cx="500" cy="500" r="344.3" />
                    <path
                        fill="#382B73"
                        d="M726.8 666.4c-6.3-6.3-14.5-9.5-22.8-9.7l-8.3-8.3-7.3-7.3-8.3-8.3-7.3-7.3-8.3-8.3-7.3-7.3-8.3-8.3-2.7-2.7c-.3-2.7-1-5.4-2-7.9l26.4-26.4c2.8-2.8 5-5.9 6.8-9.2 4-7.6 5.2-16.3 3.7-24.6-.2-.9-.4-1.7-.6-2.6-.2-.7-.4-1.5-.6-2.2-.2-.7-.5-1.4-.8-2.2-.4-1-.8-2-1.3-3-1.8-3.6-4.2-7-7.2-10-.2-.2-.5-.4-.7-.6l-.2-.2c-.2-.1-.4-.3-.6-.4-.1 0-.1-.1-.2-.1-.2-.1-.4-.3-.6-.4-.1 0-.1 0-.2-.1-.2-.1-.5-.2-.7-.3h-.1c-.3-.1-.5-.2-.8-.3h-.1c-.3-.1-.6-.1-.9-.2-.6-.1-1.3-.1-1.9-.1-2.3.1-4.6 1-6.4 2.8l-35 35-43.8-46.5-6-6.4-4.4-4.7 92.2-86.8c2.5-2.4 4.1-5.6 4.5-9l7.4-73.1v-1c0-.1 0-.2-.1-.3v-.2c0-.1-.1-.2-.1-.4v-.1c0-.1-.1-.3-.2-.4v-.1c-.1-.1-.1-.3-.2-.4-.1-.1-.2-.3-.3-.4-1-1.3-2.5-2.1-4.3-1.9l-73.1 7.4c-3.4.3-6.6 1.9-9 4.5l-84.7 90-84.7-90c-2.3-2.5-5.6-4.1-9-4.5l-73.1-7.4c-1.6-.2-3 .5-4 1.5-.2.2-.4.4-.5.7-.5.8-.8 1.9-.7 3l7.4 73.1c.3 3.4 1.9 6.6 4.5 9l92.2 86.8-4.4 4.7-49.8 52.9-35-35c-1.8-1.8-4.1-2.7-6.4-2.8-.6 0-1.3 0-1.9.1-.3 0-.6.1-.9.2h-.1c-.3.1-.5.2-.8.3h-.1c-.2.1-.5.2-.7.3-.1 0-.1 0-.2.1-.2.1-.4.2-.6.4-.1 0-.1.1-.2.1-.2.1-.4.3-.6.4l-.2.2c-.2.2-.5.4-.7.6-3 3-5.4 6.4-7.2 10-.5 1-.9 2-1.3 3-.3.7-.5 1.4-.8 2.2-.2.7-.4 1.5-.6 2.2-.2.9-.4 1.7-.6 2.6-1.5 8.3-.3 17 3.7 24.6 1.7 3.3 4 6.4 6.8 9.2L356 591c-1 2.6-1.7 5.2-2 7.9l-2.7 2.7-8.3 8.3-7.3 7.3-8.3 8.3-7.3 7.3-8.3 8.3-7.3 7.3-8.3 8.3c-8.3.1-16.5 3.4-22.8 9.7-12.9 12.9-12.9 33.8 0 46.7 12.9 12.9 33.8 12.9 46.7 0 6.3-6.3 9.5-14.5 9.7-22.8l57.8-57.8c2.7-.3 5.4-1 7.9-2l26.4 26.4c2.3 2.3 4.9 4.3 7.6 5.9.8.5 1.6.9 2.5 1.3 2.5 1.2 5.1 2.2 7.8 2.9.6.1 1.2.3 1.8.4 4.7.9 9.5.9 14.2 0 .8-.2 1.6-.3 2.4-.5.9-.2 1.8-.5 2.7-.8.4-.1.7-.3 1.1-.4 1.2-.5 2.4-1 3.6-1.6 3.6-1.8 7-4.2 10-7.2.2-.2.4-.5.6-.7l.2-.2c.1-.2.3-.4.4-.6 0-.1.1-.1.1-.2.1-.2.3-.4.4-.6 0-.1.1-.1.1-.2.1-.2.2-.5.3-.7v-.1c.1-.3.2-.5.3-.8v-.1c.1-.3.1-.6.2-.9.1-.6.1-1.3.1-1.9-.1-2.3-1-4.6-2.8-6.4l-35.1-35.1 54.9-51.7 4.7-4.4 4.7 4.4 6.4 6 48.5 45.7-35.1 35.1c-1.8 1.8-2.7 4.1-2.8 6.4 0 .6 0 1.3.1 1.9 0 .3.1.6.2.9v.1c.1.3.2.5.3.8v.1c.1.2.2.5.3.7 0 .1 0 .1.1.2.1.2.2.4.4.6 0 .1.1.1.1.2.1.2.3.4.4.6l.2.2c.2.2.4.5.6.7 3 3 6.4 5.4 10 7.2 1.2.6 2.4 1.1 3.6 1.6.4.1.7.3 1.1.4.9.3 1.8.6 2.7.8.8.2 1.6.4 2.4.5 4.7.9 9.5.9 14.2 0 .6-.1 1.2-.2 1.8-.4 2.7-.7 5.3-1.6 7.8-2.9.8-.4 1.7-.8 2.5-1.3 2.7-1.6 5.2-3.5 7.6-5.9l26.4-26.4c2.6 1 5.2 1.7 7.9 2l57.8 57.8c.1 8.3 3.4 16.5 9.7 22.8 12.9 12.9 33.8 12.9 46.7 0 13.1-12.9 13.1-33.8.2-46.7z"
                    />
                    <g>
                        <path
                            fill="#D1D3D4"
                            d="M626.1 530.2 614.3 542l-16 16-3.4 3.4-3.2 3.2-16 16-11.8 11.8-4.2-4-48.5-45.7-.5-.4-5.9-5.6-62.2-58.6-.4-.4-6.4-6-95.8-90.2c-2.5-2.4-4.1-5.6-4.4-9l-7.4-73.1c-.1-1.1.2-2.1.7-3 .1-.3.3-.5.5-.7 1-1.1 2.4-1.7 4-1.5l73 7.4c3.5.3 6.6 1.9 9 4.5l88.1 93.6 6 6.4.4.4 62.5 66.4 5.6 5.9.4.5 43.8 46.5 3.9 4.4z"
                        />
                        <path
                            fill="#BCBEC0"
                            d="m590.7 557.3-19.3 19.3-11.8 11.8-48.5-45.7-6.4-6-62.2-58.5-6.8-6.4-95.8-90.2c-2.5-2.4-4.1-5.6-4.5-9l-7.4-73.1c-.1-1.1.2-2.1.7-3 .2-.3.3-.5.5-.7l23.3 23.3 71.5 71.5 3 3 49 49 68.6 68.6 46.1 46.1z"
                        />
                        <path
                            fill="#FFF"
                            d="m614.3 542-38.7 38.7-215.8-207.8c-2.5-2.3-4-5.5-4.3-8.9l-4.2-41.3c-.2-1.6.5-3 1.5-4 1-.9 2.3-1.4 3.7-1.2l41.3 4.1c3.4.3 6.5 1.9 8.9 4.3L614.3 542z"
                        />
                        <path
                            fill="#E6E7E8"
                            d="m594.9 561.4-19.2 19.2-215.9-207.7c-2.5-2.3-4-5.5-4.3-8.9l-4.2-41.3c-.2-1.6.5-3 1.5-4l242.1 242.7z"
                        />
                        <path
                            fill="#1CAEE4"
                            d="m670.6 544.6-92.3 92.3c-14.8 14.8-38.9 14.8-53.7 0-3.7-3.7-3.7-9.7 0-13.4l132.6-132.6c3.7-3.7 9.7-3.7 13.4 0 14.8 14.8 14.8 38.9 0 53.7z"
                        />
                        <path
                            fill="#009ADD"
                            d="M663.6 488.1c5.5 13.7 2.7 29.9-8.4 41l-92.3 92.3c-11.1 11.1-27.3 13.9-41 8.4-.1 2.5.8 5.1 2.8 7.1 14.8 14.8 38.9 14.8 53.7 0l92.3-92.3c14.8-14.8 14.8-38.9 0-53.7-2-2-4.6-2.9-7.1-2.8z"
                        />
                        <circle fill="#009ADD" cx="616.2" cy="582.4" r="30.3" />
                        <path
                            fill="#009ADD"
                            d="M663.6 488.1c5.5 13.7 2.7 29.9-8.4 41l-92.3 92.3c-11.1 11.1-27.3 13.9-41 8.4-.1 2.5.8 5.1 2.8 7.1 14.8 14.8 38.9 14.8 53.7 0l92.3-92.3c14.8-14.8 14.8-38.9 0-53.7-2-2-4.6-2.9-7.1-2.8z"
                        />
                        <path
                            fill="#FEDE3A"
                            d="m607.262 607.148 33.587-33.588 64.983 64.983-33.588 33.587z"
                        />
                        <path
                            fill="#E7AD27"
                            d="m607.214 607.151 10.748-10.748 64.982 64.983-10.747 10.748z"
                        />
                        <circle fill="#F7CB15" cx="703.4" cy="669.7" r="33" />
                        <circle fill="#FFF335" cx="695.1" cy="661.4" r="21.2" />
                        <path
                            fill="#F7CB15"
                            d="m662.162 661.994 33.587-33.587 8.273 8.273-33.587 33.587zM646.499 646.447l33.587-33.587 8.273 8.273-33.587 33.587zM630.906 630.83l33.587-33.586 8.273 8.273-33.587 33.587zM622.27 608.244l26.587-26.587 8.274 8.273-26.587 26.587z"
                        />
                        <path
                            fill="#E7AD27"
                            d="m640.8 573.6-33.6 33.6 15.6 15.6c5.4-1.2 10.5-3.9 14.8-8.1 8.9-8.9 11.1-21.9 6.6-32.9l2.4-2.4-5.8-5.8z"
                        />
                        <circle fill="#009ADD" cx="616.2" cy="582.4" r="30.3" />
                        <circle fill="#136DA0" cx="616.2" cy="585.7" r="16.5" />
                        <circle fill="#1CAEE4" cx="616.2" cy="582.4" r="16.5" />
                        <circle fill="#F7CB15" cx="616.2" cy="582.4" r="10" />
                        <path
                            fill="#FFF335"
                            d="M609.1 582.8c3.9-3.9 10.2-3.9 14.1 0 1 1 1.7 2.1 2.2 3.4 1.4-3.6.7-7.8-2.2-10.7-3.9-3.9-10.2-3.9-14.1 0-2.9 2.9-3.6 7.1-2.2 10.7.5-1.3 1.2-2.4 2.2-3.4z"
                        />
                        <path
                            fill="#D1D3D4"
                            d="m596.5 551.6-11.2 11.2-161.1-161.2c-3.1-3.1-3.1-8.1 0-11.2 3.1-3.1 8.1-3.1 11.2 0l161.1 161.2z"
                        />
                        <path
                            fill="#BCBEC0"
                            d="M428.9 396.9c-2.2-2.2-2.8-5.5-1.9-8.3-1.1.4-2.1 1-2.9 1.9-3.1 3.1-3.1 8.1 0 11.2l161.1 161.1 4.8-4.8-161.1-161.1z"
                        />
                        <g>
                            <path
                                fill="#E6E7E8"
                                d="m550.1 505.2 14.3-13.5.8-.8-68.5-71.2-.1.1-15.5 16.4z"
                            />
                        </g>
                        <path
                            fill="#D1D3D4"
                            d="m470.3 447.8-15.6 16.5 68.7 66 15.1-14.3z"
                        />
                        <g>
                            <path
                                fill="#BCBEC0"
                                d="m543.5 511.4 6.6-6.2-69-69-6.2 6.6z"
                            />
                        </g>
                        <g>
                            <path
                                fill="#D1D3D4"
                                d="m373.9 530.2 27.8 27.8 6.6 6.6 16 16 11.8 11.8 4.2-4 55-51.7 69-65 95.8-90.2c2.5-2.4 4.1-5.6 4.5-9l7.4-73.1c.3-3-2.2-5.5-5.2-5.2l-73.1 7.4c-3.4.3-6.6 1.9-9 4.5l-88.1 93.6-69 73.3-49.8 52.9-3.9 4.3z"
                            />
                            <path
                                fill="#BCBEC0"
                                d="m409.3 557.3 261.5-261.5c.9 1 1.4 2.3 1.2 3.7l-7.4 73.1c-.3 3.4-1.9 6.6-4.5 9l-95.8 90.2-69 65-54.9 51.7-31.1-31.2z"
                            />
                            <path
                                fill="#FFF"
                                d="m385.7 542 38.7 38.7L640.3 373c2.5-2.3 4-5.5 4.3-8.9l4.2-41.3c.2-1.6-.5-3-1.5-4-1-.9-2.3-1.4-3.7-1.2l-41.3 4.1c-3.4.3-6.5 1.9-8.9 4.3L385.7 542z"
                            />
                            <path
                                fill="#E6E7E8"
                                d="m405.1 561.4 19.2 19.2 215.9-207.7c2.5-2.3 4-5.5 4.3-8.9l4.2-41.3c.2-1.6-.5-3-1.5-4L405.1 561.4z"
                            />
                            <path
                                fill="#1CAEE4"
                                d="m329.4 544.6 92.3 92.3c14.8 14.8 38.9 14.8 53.7 0 3.7-3.7 3.7-9.7 0-13.4L342.8 490.9c-3.7-3.7-9.7-3.7-13.4 0-14.8 14.8-14.8 38.9 0 53.7z"
                            />
                            <path
                                fill="#009ADD"
                                d="M336.4 488.1c-5.5 13.7-2.7 29.9 8.4 41l92.3 92.3c11.1 11.1 27.3 13.9 41 8.4.1 2.5-.8 5.1-2.8 7.1-14.8 14.8-38.9 14.8-53.7 0l-92.3-92.3c-14.8-14.8-14.8-38.9 0-53.7 2-2 4.6-2.9 7.1-2.8z"
                            />
                            <circle
                                fill="#009ADD"
                                cx="383.8"
                                cy="582.4"
                                r="30.3"
                            />
                            <path
                                fill="#009ADD"
                                d="M336.4 488.1c-5.5 13.7-2.7 29.9 8.4 41l92.3 92.3c11.1 11.1 27.3 13.9 41 8.4.1 2.5-.8 5.1-2.8 7.1-14.8 14.8-38.9 14.8-53.7 0l-92.3-92.3c-14.8-14.8-14.8-38.9 0-53.7 2-2 4.6-2.9 7.1-2.8z"
                            />
                            <path
                                fill="#FEDE3A"
                                d="m327.76 672.128-33.587-33.587 64.983-64.983 33.587 33.588z"
                            />
                            <path
                                fill="#E7AD27"
                                d="m317.007 661.431 64.982-64.982 10.748 10.748-64.983 64.982z"
                            />
                            <circle
                                fill="#F7CB15"
                                cx="296.6"
                                cy="669.7"
                                r="33"
                            />
                            <circle
                                fill="#FFF335"
                                cx="304.9"
                                cy="661.4"
                                r="21.2"
                            />
                            <path
                                fill="#F7CB15"
                                d="m329.536 670.405-33.587-33.587 8.273-8.273 33.587 33.587zM345.109 654.717 311.52 621.13l8.273-8.273 33.588 33.587zM360.75 639.099l-33.587-33.588 8.273-8.273 33.588 33.588zM369.438 616.536l-26.587-26.587 8.273-8.273 26.587 26.587z"
                            />
                            <path
                                fill="#E7AD27"
                                d="m359.2 573.6 33.6 33.6-15.6 15.6c-5.4-1.2-10.5-3.9-14.8-8.1-8.9-8.9-11.1-21.9-6.6-32.9l-2.4-2.4 5.8-5.8z"
                            />
                            <circle
                                fill="#009ADD"
                                cx="383.8"
                                cy="582.4"
                                r="30.3"
                            />
                            <circle
                                fill="#136DA0"
                                cx="383.8"
                                cy="585.7"
                                r="16.5"
                            />
                            <circle
                                fill="#1CAEE4"
                                cx="383.8"
                                cy="582.4"
                                r="16.5"
                            />
                            <circle
                                fill="#F7CB15"
                                cx="383.8"
                                cy="582.4"
                                r="10"
                            />
                            <path
                                fill="#FFF335"
                                d="M390.9 582.8c-3.9-3.9-10.2-3.9-14.1 0-1 1-1.7 2.1-2.2 3.4-1.4-3.6-.7-7.8 2.2-10.7 3.9-3.9 10.2-3.9 14.1 0 2.9 2.9 3.6 7.1 2.2 10.7-.5-1.3-1.2-2.4-2.2-3.4z"
                            />
                            <path
                                fill="#D1D3D4"
                                d="m403.5 551.6 11.2 11.2 161.1-161.1c3.1-3.1 3.1-8.1 0-11.2-3.1-3.1-8.1-3.1-11.2 0L403.5 551.6z"
                            />
                            <path
                                fill="#BCBEC0"
                                d="M571.1 396.9c2.2-2.2 2.8-5.5 1.9-8.3 1.1.4 2.1 1 2.9 1.9 3.1 3.1 3.1 8.1 0 11.2L414.7 562.8l-11.2-11.2 6.4 6.4 161.2-161.1z"
                            />
                        </g>
                    </g>
                </g>
            </switch>
        </svg>